REM DIRINDEX 1\2,1\3,1\4,1\5
REM DIRNAME cjc044,folder01,folder02,folder03,folder04
TITLE ""
FILE "1800_153.mp3" MP3
  TRACK 01 AUDIO
    TITLE "2:cjc044_4809"
    INDEX 01 00:00:00
  TRACK 02 AUDIO
    TITLE "0:"
    INDEX 01 00:01:13
  TRACK 03 AUDIO
    TITLE "3:cjc044_4810"
    INDEX 01 00:01:68
  TRACK 04 AUDIO
    TITLE "0:"
    INDEX 01 00:02:59
  TRACK 05 AUDIO
    TITLE "4:cjc044_4811"
    INDEX 01 00:03:43
  TRACK 06 AUDIO
    TITLE "0:"
    INDEX 01 00:04:64
  TRACK 07 AUDIO
    TITLE "2:cjc044_4812"
    INDEX 01 00:06:45
  TRACK 08 AUDIO
    TITLE "0:"
    INDEX 01 00:07:45
  TRACK 09 AUDIO
    TITLE "3:cjc044_4813"
    INDEX 01 00:08:26
  TRACK 10 AUDIO
    TITLE "0:"
    INDEX 01 00:09:22
  TRACK 11 AUDIO
    TITLE "4:cjc044_4814"
    INDEX 01 00:10:06
  TRACK 12 AUDIO
    TITLE "0:"
    INDEX 01 00:11:07
  TRACK 13 AUDIO
    TITLE "2:cjc044_4815"
    INDEX 01 00:12:63
  TRACK 14 AUDIO
    TITLE "0:"
    INDEX 01 00:14:29
  TRACK 15 AUDIO
    TITLE "3:cjc044_4816"
    INDEX 01 00:15:19
  TRACK 16 AUDIO
    TITLE "0:"
    INDEX 01 00:16:40
  TRACK 17 AUDIO
    TITLE "4:cjc044_4817"
    INDEX 01 00:17:33
  TRACK 18 AUDIO
    TITLE "0:"
    INDEX 01 00:18:68
  TRACK 19 AUDIO
    TITLE "2:cjc044_4818"
    INDEX 01 00:20:57
  TRACK 20 AUDIO
    TITLE "0:"
    INDEX 01 00:22:13
  TRACK 21 AUDIO
    TITLE "3:cjc044_4819"
    INDEX 01 00:23:03
  TRACK 22 AUDIO
    TITLE "0:"
    INDEX 01 00:24:25
  TRACK 23 AUDIO
    TITLE "4:cjc044_4820"
    INDEX 01 00:25:19
  TRACK 24 AUDIO
    TITLE "0:"
    INDEX 01 00:26:52
  TRACK 25 AUDIO
    TITLE "2:cjc044_4821"
    INDEX 01 00:28:37
  TRACK 26 AUDIO
    TITLE "0:"
    INDEX 01 00:30:03
  TRACK 27 AUDIO
    TITLE "3:cjc044_4822"
    INDEX 01 00:30:65
  TRACK 28 AUDIO
    TITLE "0:"
    INDEX 01 00:32:01
  TRACK 29 AUDIO
    TITLE "4:cjc044_4823"
    INDEX 01 00:32:64
  TRACK 30 AUDIO
    TITLE "0:"
    INDEX 01 00:34:30
  TRACK 31 AUDIO
    TITLE "2:cjc044_4824"
    INDEX 01 00:36:17
  TRACK 32 AUDIO
    TITLE "0:"
    INDEX 01 00:37:32
  TRACK 33 AUDIO
    TITLE "3:cjc044_4825"
    INDEX 01 00:38:12
  TRACK 34 AUDIO
    TITLE "0:"
    INDEX 01 00:39:13
  TRACK 35 AUDIO
    TITLE "4:cjc044_4826"
    INDEX 01 00:39:66
  TRACK 36 AUDIO
    TITLE "0:"
    INDEX 01 00:41:08
  TRACK 37 AUDIO
    TITLE "2:cjc044_4827"
    INDEX 01 00:42:59
  TRACK 38 AUDIO
    TITLE "0:"
    INDEX 01 00:43:62
  TRACK 39 AUDIO
    TITLE "3:cjc044_4828"
    INDEX 01 00:44:36
  TRACK 40 AUDIO
    TITLE "0:"
    INDEX 01 00:45:47
  TRACK 41 AUDIO
    TITLE "4:cjc044_4829"
    INDEX 01 00:46:25
  TRACK 42 AUDIO
    TITLE "0:"
    INDEX 01 00:47:28
  TRACK 43 AUDIO
    TITLE "2:cjc044_4830"
    INDEX 01 00:49:06
  TRACK 44 AUDIO
    TITLE "0:"
    INDEX 01 00:50:39
  TRACK 45 AUDIO
    TITLE "3:cjc044_4831"
    INDEX 01 00:51:16
  TRACK 46 AUDIO
    TITLE "0:"
    INDEX 01 00:52:26
  TRACK 47 AUDIO
    TITLE "4:cjc044_4832"
    INDEX 01 00:53:11
  TRACK 48 AUDIO
    TITLE "0:"
    INDEX 01 00:54:44
  TRACK 49 AUDIO
    TITLE "2:cjc044_4833"
    INDEX 01 00:56:29
  TRACK 50 AUDIO
    TITLE "0:"
    INDEX 01 00:57:56
  TRACK 51 AUDIO
    TITLE "3:cjc044_4834"
    INDEX 01 00:58:46
  TRACK 52 AUDIO
    TITLE "0:"
    INDEX 01 00:59:45
  TRACK 53 AUDIO
    TITLE "4:cjc044_4835"
    INDEX 01 01:00:37
  TRACK 54 AUDIO
    TITLE "0:"
    INDEX 01 01:01:58
  TRACK 55 AUDIO
    TITLE "2:cjc044_4836"
    INDEX 01 01:03:47
  TRACK 56 AUDIO
    TITLE "0:"
    INDEX 01 01:04:50
  TRACK 57 AUDIO
    TITLE "3:cjc044_4837"
    INDEX 01 01:05:32
  TRACK 58 AUDIO
    TITLE "0:"
    INDEX 01 01:06:34
  TRACK 59 AUDIO
    TITLE "4:cjc044_4838"
    INDEX 01 01:07:27
  TRACK 60 AUDIO
    TITLE "0:"
    INDEX 01 01:08:31
  TRACK 61 AUDIO
    TITLE "2:cjc044_4839"
    INDEX 01 01:10:16
  TRACK 62 AUDIO
    TITLE "0:"
    INDEX 01 01:11:37
  TRACK 63 AUDIO
    TITLE "3:cjc044_4840"
    INDEX 01 01:12:19
  TRACK 64 AUDIO
    TITLE "0:"
    INDEX 01 01:13:67
  TRACK 65 AUDIO
    TITLE "4:cjc044_4841"
    INDEX 01 01:14:49
  TRACK 66 AUDIO
    TITLE "0:"
    INDEX 01 01:15:68
  TRACK 67 AUDIO
    TITLE "2:cjc044_4842"
    INDEX 01 01:17:55
  TRACK 68 AUDIO
    TITLE "0:"
    INDEX 01 01:18:70
  TRACK 69 AUDIO
    TITLE "3:cjc044_4843"
    INDEX 01 01:19:58
  TRACK 70 AUDIO
    TITLE "0:"
    INDEX 01 01:20:65
  TRACK 71 AUDIO
    TITLE "4:cjc044_4844"
    INDEX 01 01:21:63
  TRACK 72 AUDIO
    TITLE "0:"
    INDEX 01 01:23:01
  TRACK 73 AUDIO
    TITLE "2:cjc044_4845"
    INDEX 01 01:24:65
  TRACK 74 AUDIO
    TITLE "0:"
    INDEX 01 01:25:72
  TRACK 75 AUDIO
    TITLE "3:cjc044_4846"
    INDEX 01 01:26:52
  TRACK 76 AUDIO
    TITLE "0:"
    INDEX 01 01:27:65
  TRACK 77 AUDIO
    TITLE "4:cjc044_4847"
    INDEX 01 01:28:43
  TRACK 78 AUDIO
    TITLE "0:"
    INDEX 01 01:29:50
  TRACK 79 AUDIO
    TITLE "2:cjc044_4848"
    INDEX 01 01:31:32
  TRACK 80 AUDIO
    TITLE "0:"
    INDEX 01 01:32:47
  TRACK 81 AUDIO
    TITLE "3:cjc044_4849"
    INDEX 01 01:33:29
  TRACK 82 AUDIO
    TITLE "0:"
    INDEX 01 01:34:28
  TRACK 83 AUDIO
    TITLE "4:cjc044_4850"
    INDEX 01 01:35:08
  TRACK 84 AUDIO
    TITLE "0:"
    INDEX 01 01:36:23
  TRACK 85 AUDIO
    TITLE "2:cjc044_4851"
    INDEX 01 01:38:08
  TRACK 86 AUDIO
    TITLE "0:"
    INDEX 01 01:39:39
  TRACK 87 AUDIO
    TITLE "3:cjc044_4852"
    INDEX 01 01:40:33
  TRACK 88 AUDIO
    TITLE "0:"
    INDEX 01 01:42:08
  TRACK 89 AUDIO
    TITLE "4:cjc044_4853"
    INDEX 01 01:43:05
  TRACK 90 AUDIO
    TITLE "0:"
    INDEX 01 01:44:40
  TRACK 91 AUDIO
    TITLE "2:cjc044_4854"
    INDEX 01 01:46:25
  TRACK 92 AUDIO
    TITLE "0:"
    INDEX 01 01:47:46
  TRACK 93 AUDIO
    TITLE "3:cjc044_4855"
    INDEX 01 01:48:20
  TRACK 94 AUDIO
    TITLE "0:"
    INDEX 01 01:49:22
  TRACK 95 AUDIO
    TITLE "4:cjc044_4856"
    INDEX 01 01:50:04
  TRACK 96 AUDIO
    TITLE "0:"
    INDEX 01 01:51:27
  TRACK 97 AUDIO
    TITLE "2:cjc044_4857"
    INDEX 01 01:53:04
  TRACK 98 AUDIO
    TITLE "0:"
    INDEX 01 01:54:21
  TRACK 99 AUDIO
    TITLE "3:cjc044_4858"
    INDEX 01 01:55:07
  TRACK 100 AUDIO
    TITLE "0:"
    INDEX 01 01:56:22
  TRACK 101 AUDIO
    TITLE "4:cjc044_4859"
    INDEX 01 01:57:02
  TRACK 102 AUDIO
    TITLE "0:"
    INDEX 01 01:58:21
  TRACK 103 AUDIO
    TITLE "2:cjc044_4860"
    INDEX 01 02:00:06
  TRACK 104 AUDIO
    TITLE "0:"
    INDEX 01 02:01:39
  TRACK 105 AUDIO
    TITLE "3:cjc044_4861"
    INDEX 01 02:02:28
  TRACK 106 AUDIO
    TITLE "0:"
    INDEX 01 02:03:73
  TRACK 107 AUDIO
    TITLE "4:cjc044_4862"
    INDEX 01 02:04:60
  TRACK 108 AUDIO
    TITLE "0:"
    INDEX 01 02:06:16
  TRACK 109 AUDIO
    TITLE "2:cjc044_4863"
    INDEX 01 02:08:03
  TRACK 110 AUDIO
    TITLE "0:"
    INDEX 01 02:09:24
  TRACK 111 AUDIO
    TITLE "3:cjc044_4864"
    INDEX 01 02:10:06
  TRACK 112 AUDIO
    TITLE "0:"
    INDEX 01 02:11:15
  TRACK 113 AUDIO
    TITLE "4:cjc044_4865"
    INDEX 01 02:12:05
  TRACK 114 AUDIO
    TITLE "0:"
    INDEX 01 02:13:26
